#!OML:ASF E:\motion texture\Top Level 1\Subject 1\Session 1\male.ASF
:FULLY-SPECIFIED
:DEGREES
600
root -38.6228 17.7875 6.27811 74.6613 -81.3155 -68.69
lowerback -2.60054 4.99361 8.29128
upperback -2.95143 6.42654 3.42553
thorax -1.0957 3.04169 -0.930449
lowerneck -18.6171 1.41875 -0.927103
upperneck 15.7392 1.44459 3.65913
head 7.89289 0.994991 1.5434
rclavicle -2.71465e-014 5.56597e-014
rhumerus 60.2877 -18.7725 -71.9683
rradius 118.992
rwrist 17.5033
rhand -44.696 -48.8003
rfingers 7.12502
rthumb -17.4911 -78.0334
lclavicle -2.71465e-014 5.56597e-014
lhumerus -9.39077 -1.54689 70.7853
lradius 80.6014
lwrist -5.42419
lhand -10.1572 30.2016
lfingers 7.12502
lthumb 15.8323 59.5742
rfemur -3.9814 -2.07772 33.206
rtibia 27.2859
rfoot -14.9501 -15.2705
rtoes -2.77497
lfemur -32.0291 -5.41409 -6.6207
ltibia 19.568
lfoot -4.55824 1.43506
ltoes -16.0512
601
root -38.7878 17.7757 6.2855 74.3081 -81.3346 -68.4028
lowerback -2.63897 5.10567 8.32134
upperback -2.98267 6.57294 3.37232
thorax -1.08651 3.11357 -0.992877
lowerneck -18.5566 1.40104 -0.926569
upperneck 15.9042 1.41248 3.67036
head 7.93822 0.9806 1.5447
rclavicle 5.19946e-014 6.20208e-014
rhumerus 60.6196 -18.9194 -72.8387
rradius 119.102
rwrist 17.5461
rhand -44.9504 -49.3277
rfingers 7.12502
rthumb -17.736 -78.5389
lclavicle 5.19946e-014 6.20208e-014
lhumerus -10.6018 -1.22139 70.9975
lradius 79.3935
lwrist -6.10445
lhand -10.5915 30.3549
lfingers 7.12502
lthumb 15.414 59.7603
rfemur -3.74756 -2.28063 33.0873
rtibia 27.9735
rfoot -14.8438 -15.1835
rtoes -3.61967
lfemur -31.8746 -5.52591 -6.76112
ltibia 19.1285
lfoot -4.21553 1.13813
ltoes -15.7536
602
root -38.9528 17.7644 6.29332 73.9485 -81.3678 -68.1196
lowerback -2.67286 5.21508 8.34067
upperback -3.01232 6.71658 3.31654
thorax -1.07887 3.18432 -1.05241
lowerneck -18.4882 1.38156 -0.929707
upperneck 16.068 1.37724 3.68917
head 7.98189 0.965169 1.54863
rclavicle 4.99695e-014 1.47101e-014
rhumerus 60.8407 -18.9292 -73.5659
rradius 119.132
rwrist 17.6547
rhand -45.1514 -49.8106
rfingers 7.12502
rthumb -17.9293 -79.0042
lclavicle 4.99695e-014 1.47101e-014
lhumerus -11.7582 -0.915957 71.231
lradius 78.1481
lwrist -6.78717
lhand -10.9863 30.5112
lfingers 7.12502
lthumb 15.0337 59.9453
rfemur -3.54745 -2.50002 32.9402
rtibia 28.7225
rfoot -14.6737 -15.0743
rtoes -4.38737
lfemur -31.6969 -5.63248 -6.929
ltibia 18.7786
lfoot -3.87443 0.824919
ltoes -15.4182
603
root -39.1175 17.7538 6.30142 73.5883 -81.415 -67.846
lowerback -2.70284 5.32272 8.34906
upperback -3.03738 6.85839 3.25871
thorax -1.06938 3.25461 -1.10814
lowerneck -18.4193 1.3617 -0.933114
upperneck 16.2321 1.34072 3.71123
head 8.0256 0.949421 1.55354
rclavicle -5.807e-014 8.74653e-015
rhumerus 60.9538 -18.8128 -74.148
rradius 119.084
rwrist 17.8303
rhand -45.2938 -50.2049
rfingers 7.12502
rthumb -18.0664 -79.3858
lclavicle -5.807e-014 8.74653e-015
lhumerus -12.8525 -0.632155 71.4863
lradius 76.8663
lwrist -7.47398
lhand -11.3448 30.6576
lfingers 7.12502
lthumb 14.6883 60.1173
rfemur -3.38262 -2.73189 32.7667
rtibia 29.5319
rfoot -14.4374 -14.954
rtoes -5.08503
lfemur -31.4965 -5.73045 -7.1224
ltibia 18.5152
lfoot -3.53826 0.497574
ltoes -15.0485
604
root -39.2819 17.7438 6.30983 73.2187 -81.4779 -67.5721
lowerback -2.72534 5.4271 8.3457
upperback -3.06029 6.99704 3.19761
thorax -1.06267 3.32359 -1.16152
lowerneck -18.3511 1.34104 -0.941215
upperneck 16.398 1.30256 3.74092
head 8.07001 0.933374 1.56161
rclavicle -1.06598e-014 1.90833e-014
rhumerus 60.9573 -18.5761 -74.5886
rradius 118.954
rwrist 18.0786
rhand -45.3519 -50.5636
rfingers 7.12502
rthumb -18.1222 -79.7394
lclavicle -1.06598e-014 1.90833e-014
lhumerus -13.8904 -0.368459 71.7599
lradius 75.5533
lwrist -8.16657
lhand -11.669 30.7889
lfingers 7.12502
lthumb 14.376 60.2711
rfemur -3.25438 -2.97775 32.5643
rtibia 30.4006
rfoot -14.1386 -14.8287
rtoes -5.7327
lfemur -31.2733 -5.81954 -7.344
ltibia 18.3329
lfoot -3.21012 0.156837
ltoes -14.6437
605
root -39.4458 17.7347 6.31847 72.842 -81.5573 -67.2989
lowerback -2.74693 5.52815 8.32861
upperback -3.07849 7.1315 3.13419
thorax -1.05288 3.39105 -1.20976
lowerneck -18.2812 1.32094 -0.951505
upperneck 16.5642 1.26441 3.77606
head 8.1142 0.917718 1.57187
rclavicle -4.00303e-014 7.15625e-015
rhumerus 60.8559 -18.2244 -74.8917
rradius 118.754
rwrist 18.3686
rhand -45.282 -50.8788
rfingers 7.12502
rthumb -18.0549 -80.0608
lclavicle -4.00303e-014 7.15625e-015
lhumerus -14.8662 -0.119376 72.0531
lradius 74.206
lwrist -8.87052
lhand -11.9546 30.8998
lfingers 7.12502
lthumb 14.1008 60.4014
rfemur -3.16477 -3.23606 32.3325
rtibia 31.3262
rfoot -13.7808 -14.696
rtoes -6.30845
lfemur -31.0281 -5.90002 -7.59244
ltibia 18.2275
lfoot -2.89468 -0.193873
ltoes -14.2059
606
root -39.6092 17.7265 6.32732 72.4481 -81.6515 -67.0161
lowerback -2.76286 5.62479 8.2994
upperback -3.09436 7.26102 3.06827
thorax -1.0451 3.45634 -1.25464
lowerneck -18.212 1.30053 -0.965197
upperneck 16.7335 1.22495 3.81833
head 8.1596 0.90195 1.58498
rclavicle -6.42571e-014 -5.4467e-014
rhumerus 60.6513 -17.7643 -75.0588
rradius 118.472
rwrist 18.7104
rhand -45.1433 -51.28
rfingers 7.12502
rthumb -17.9216 -80.4743
lclavicle -6.42571e-014 -5.4467e-014
lhumerus -15.7858 0.115668 72.3636
lradius 72.8296
lwrist -9.58352
lhand -12.204 30.9837
lfingers 7.12502
lthumb 13.8604 60.5018
rfemur -3.11439 -3.5078 32.0727
rtibia 32.3053
rfoot -13.3644 -14.561
rtoes -6.79977
lfemur -30.7607 -5.9704 -7.86687
ltibia 18.193
lfoot -2.5938 -0.553764
ltoes -13.7331
607
root -39.772 17.7193 6.33629 72.0411 -81.7606 -66.7262
lowerback -2.77701 5.71689 8.2582
upperback -3.10553 7.38483 3.00008
thorax -1.03482 3.5193 -1.29549
lowerneck -18.142 1.28091 -0.977844
upperneck 16.9007 1.1855 3.8634
head 8.20423 0.886517 1.59885
rclavicle 5.05658e-014 7.55382e-015
rhumerus 60.352 -17.1999 -75.096
rradius 118.103
rwrist 19.0963
rhand -44.9352 -51.7078
rfingers 7.12502
rthumb -17.7213 -80.9203
lclavicle 5.05658e-014 7.55382e-015
lhumerus -16.6465 0.339295 72.6897
lradius 71.4259
lwrist -10.307
lhand -12.4166 31.0406
lfingers 7.12502
lthumb 13.6556 60.5726
rfemur -3.10584 -3.79051 31.7864
rtibia 33.3356
rfoot -12.8887 -14.4284
rtoes -7.19565
lfemur -30.4714 -6.03015 -8.16452
ltibia 18.2219
lfoot -2.30962 -0.919752
ltoes -13.2285
608
root -39.934 17.7133 6.34531 71.6214 -81.8822 -66.4291
lowerback -2.78757 5.80417 8.20677
upperback -3.11312 7.50277 2.93021
thorax -1.02418 3.57968 -1.33296
lowerneck -18.0728 1.26206 -0.991021
upperneck 17.0684 1.14611 3.91255
head 8.24916 0.871495 1.61422
rclavicle 8.14023e-014 1.63003e-014
rhumerus 59.9653 -16.5394 -75.0115
rradius 117.647
rwrist 19.4892
rhand -44.6545 -52.1519
rfingers 7.12502
rthumb -17.4511 -81.3886
lclavicle 8.14023e-014 1.63003e-014
lhumerus -17.4526 0.551652 73.0299
lradius 69.9987
lwrist -11.0392
lhand -12.5929 31.0628
lfingers 7.12502
lthumb 13.4856 60.6062
rfemur -3.13946 -4.08346 31.4764
rtibia 34.4125
rfoot -12.3553 -14.3006
rtoes -7.48836
lfemur -30.16 -6.0785 -8.48198
ltibia 18.3077
lfoot -2.04509 -1.28875
ltoes -12.6961
609
root -40.0953 17.7085 6.35439 71.179 -82.0163 -66.1139
lowerback -2.79391 5.88594 8.14516
upperback -3.11736 7.614 2.85853
thorax -1.01384 3.63706 -1.36734
lowerneck -18.0076 1.2436 -1.00603
upperneck 17.238 1.10632 3.96697
head 8.29548 0.856743 1.63172
rclavicle 6.27414e-014 -2.22639e-014
rhumerus 59.498 -15.7878 -74.8139
rradius 117.102
rwrist 19.8822
rhand -44.2989 -52.6073
rfingers 7.12502
rthumb -17.1089 -81.874
lclavicle 6.27414e-014 -2.22639e-014
lhumerus -18.203 0.755569 73.3833
lradius 68.5462
lwrist -11.781
lhand -12.7339 31.0392
lfingers 7.12502
lthumb 13.3497 60.5915
rfemur -3.21518 -4.38666 31.1429
rtibia 35.5304
rfoot -11.7643 -14.1788
rtoes -7.66901
lfemur -29.8265 -6.11683 -8.81868
ltibia 18.4432
lfoot -1.80149 -1.65734
ltoes -12.1398
